<?xml version="1.0" standalone="no"?>
<!DOCTYPE svg PUBLIC "-//W3C//DTD SVG 20010904//EN"
 "http://www.w3.org/TR/2001/REC-SVG-20010904/DTD/svg10.dtd">
<svg version="1.0" xmlns="http://www.w3.org/2000/svg"
 width="1266.000000pt" height="1266.000000pt" viewBox="0 0 1266.000000 1266.000000"
 preserveAspectRatio="xMidYMid meet">
<metadata>
Created by potrace 1.11, written by Peter Selinger 2001-2013
</metadata>
<g transform="translate(0.000000,1266.000000) scale(0.100000,-0.100000)"
fill="#000000" stroke="none">
<path d="M5750 12324 c-25 -2 -112 -8 -195 -14 -2467 -182 -4631 -1943 -5320
-4330 -312 -1082 -312 -2219 0 -3300 465 -1606 1598 -2957 3115 -3715 554
-277 1109 -457 1712 -555 1496 -243 3001 79 4268 914 1015 669 1798 1624 2261
2759 l48 117 -1033 0 -1033 0 -59 -92 c-634 -1010 -1646 -1718 -2760 -1932
-269 -52 -366 -60 -719 -61 -346 0 -422 6 -684 51 -816 140 -1578 547 -2171
1160 -630 651 -1041 1500 -1164 2409 -24 177 -27 217 -35 411 -22 536 49 1049
214 1534 202 592 506 1082 945 1520 317 318 634 547 1030 745 633 317 1361
466 2073 427 624 -35 1149 -168 1666 -422 404 -199 714 -417 1030 -725 218
-213 358 -382 536 -650 l100 -150 1028 -3 c885 -2 1027 0 1027 12 0 27 -131
331 -225 521 -784 1587 -2233 2765 -3930 3193 -480 122 -867 171 -1375 177
-168 1 -325 1 -350 -1z"/>
<path d="M5745 8394 c-853 -116 -1545 -723 -1759 -1545 -50 -193 -67 -325 -68
-529 -1 -572 211 -1089 612 -1490 639 -639 1604 -799 2409 -399 229 114 400
239 576 420 171 177 279 332 393 567 l64 132 1302 0 1301 0 555 395 c305 218
772 550 1037 738 265 188 482 345 482 350 1 4 -1049 7 -2332 7 l-2334 0 -28
68 c-294 702 -928 1190 -1673 1286 -149 19 -397 19 -537 0z"/>
</g>
</svg>
